<?xml version="1.0" encoding="UTF-8"?>
<!DOCTYPE svg PUBLIC "-//W3C//DTD SVG 1.1//EN" "http://www.w3.org/Graphics/SVG/1.1/DTD/svg11.dtd">
<!-- Creator: CorelDRAW X7 -->
<svg xmlns="http://www.w3.org/2000/svg" xml:space="preserve" width="461px" height="461px" version="1.1" style="shape-rendering:geometricPrecision; text-rendering:geometricPrecision; image-rendering:optimizeQuality; fill-rule:evenodd; clip-rule:evenodd"
viewBox="0 0 227 227"
 xmlns:xlink="http://www.w3.org/1999/xlink">
 <defs>
  <style type="text/css">
   <![CDATA[
    .fil0 {fill:#3465A4}
   ]]>
  </style>
 </defs>
 <g id="Ebene_x0020_1">
  <metadata id="CorelCorpID_0Corel-Layer"/>
  <path class="fil0" d="M113 0c63,0 114,51 114,113 0,63 -51,114 -114,114 -62,0 -113,-51 -113,-114 0,-62 51,-113 113,-113zm0 9c58,0 105,47 105,104 0,58 -47,105 -105,105 -57,0 -104,-47 -104,-105 0,-57 47,-104 104,-104zm0 7c54,0 98,43 98,97 0,54 -44,98 -98,98 -54,0 -97,-44 -97,-98 0,-54 43,-97 97,-97zm-10 125c0,-10 1,-16 3,-21 2,-4 6,-9 13,-15 7,-5 11,-11 11,-17 0,-7 -2,-11 -5,-14 -3,-2 -7,-4 -11,-4 -5,0 -9,2 -12,5 -3,3 -5,8 -6,16l-23 0c0,-14 4,-25 12,-31 8,-7 17,-10 27,-10 13,0 24,3 31,10 7,6 11,15 11,27 0,7 -1,12 -5,17 -3,5 -7,9 -12,13 -6,5 -9,8 -11,11 -1,2 -2,7 -2,13l-21 0zm23 36l-24 0 0 -25 24 0 0 25z"/>
 </g>
</svg>
